{"title":"Sonhando com Milhões (1963) , Euripides Ramos","uid":9383433,"size":1546900344,"categoryP":"video","categoryS":"movies","magnet":"?xt=urn:btih:a402387f9e6e977dc333e2d5ddcb1e9643f62c90&amp;dn=Sonhando+com+Milh%26otilde%3Bes+%281963%29+%2C+Euripides+Ramos&amp;tr=udp%3A%2F%2Ftracker.openbittorrent.com%3A80&amp;tr=udp%3A%2F%2Fopen.demonii.com%3A1337&amp;tr=udp%3A%2F%2Ftracker.coppersurfer.tk%3A6969&amp;tr=udp%3A%2F%2Fexodus.desync.com%3A6969","seeders":1,"leechers":0,"uploader":"wesleybl","files":1,"time":1387751723,"description":" &lt;a href=&quot;http://www.imdb.com/title/tt0197905&quot; rel=&quot;nofollow&quot; target=&quot;_NEW&quot;&gt;http://www.imdb.com/title/tt0197905&lt;/a&gt;\n\nCivil servant finds about a group of mill owners who are defrauding some Government taxes. They try to buy him offering a considerable sum, hoping he would lay off the investigation, but he resists.\n\nVideo\nID : 0\nFormat : MPEG-4 Visual\nFormat profile : Simple@L3\nFormat settings, BVOP : No\nFormat settings, QPel : No\nFormat settings, GMC : No warppoints\nFormat settings, Matrix : Default (H.263)\nCodec ID : XVID\nCodec ID/Hint : XviD\nDuration : 1h 21mn\nBit rate : 2 182 Kbps\nWidth : 704 pixels\nHeight : 480 pixels\nDisplay aspect ratio : 3:2\nFrame rate : 29.970 fps\nStandard : NTSC\nColor space : YUV\nChroma subsampling : 4:2:0\nBit depth : 8 bits\nScan type : Progressive\nCompression mode : Lossy\nBits/(Pixel*Frame) : 0.215\nStream size : 1.25 GiB (87%)\nWriting library : XviD 1.2.1 (UTC 2008-12-04)\n\nAudio\nID : 1\nFormat : MPEG Audio\nFormat version : Version 1\nFormat profile : Layer 3\nMode : Joint stereo\nMode extension : MS Stereo\nCodec ID : 55\nCodec ID/Hint : MP3\nDuration : 1h 21mn\nBit rate mode : Constant\nBit rate : 320 Kbps\nChannel(s) : 2 channels\nSampling rate : 48.0 KHz\nCompression mode : Lossy\nStream size : 188 MiB (13%)\nAlignment : Aligned on interleaves\nInterleave, duration : 24 ms (0.72 video frame)\nWriting library : LAME3.98.4","torrent":{"xt":"urn:btih:a402387f9e6e977dc333e2d5ddcb1e9643f62c90","amp;dn":"Sonhando+com+Milh%26otilde%3Bes+%281963%29+%2C+Euripides+Ramos","amp;tr":["udp%3A%2F%2Ftracker.openbittorrent.com%3A80","udp%3A%2F%2Fopen.demonii.com%3A1337","udp%3A%2F%2Ftracker.coppersurfer.tk%3A6969","udp%3A%2F%2Fexodus.desync.com%3A6969"],"infoHash":"a402387f9e6e977dc333e2d5ddcb1e9643f62c90","infoHashBuffer":{"type":"Buffer","data":[164,2,56,127,158,110,151,125,195,51,226,213,221,203,30,150,67,246,44,144]},"announce":[],"urlList":[]}}